<svg width="24px" height="24px" viewBox="0 0 25 25" fill="none" xmlns="http://www.w3.org/2000/svg">
<path d="M18.75 8.30499H17.7083V6.22874C17.7083 3.36352 15.375 1.03812 12.5 1.03812C9.62496 1.03812 7.29163 3.36352 7.29163 6.22874V8.30499H6.24996C5.10413 8.30499 4.16663 9.2393 4.16663 10.3812V20.7625C4.16663 21.9044 5.10413 22.8387 6.24996 22.8387H18.75C19.8958 22.8387 20.8333 21.9044 20.8333 20.7625V10.3812C20.8333 9.2393 19.8958 8.30499 18.75 8.30499ZM9.37496 6.22874C9.37496 4.50546 10.7708 3.11437 12.5 3.11437C14.2291 3.11437 15.625 4.50546 15.625 6.22874V8.30499H9.37496V6.22874ZM18.75 20.7625H6.24996V10.3812H18.75V20.7625ZM12.5 17.6481C13.6458 17.6481 14.5833 16.7138 14.5833 15.5719C14.5833 14.4299 13.6458 13.4956 12.5 13.4956C11.3541 13.4956 10.4166 14.4299 10.4166 15.5719C10.4166 16.7138 11.3541 17.6481 12.5 17.6481Z" fill="white"/>
</svg>
