<svg width="25" height="25" viewBox="0 0 25 25" fill="none" xmlns="http://www.w3.org/2000/svg">
<path d="M12.5 6.22874C13.6458 6.22874 14.5833 7.16306 14.5833 8.30499C14.5833 9.44693 13.6458 10.3812 12.5 10.3812C11.3541 10.3812 10.4166 9.44693 10.4166 8.30499C10.4166 7.16306 11.3541 6.22874 12.5 6.22874ZM12.5 16.61C15.3125 16.61 18.5416 17.9492 18.75 18.6862H6.24996C6.48954 17.9388 9.69788 16.61 12.5 16.61ZM12.5 4.1525C10.1979 4.1525 8.33329 6.01074 8.33329 8.30499C8.33329 10.5992 10.1979 12.4575 12.5 12.4575C14.802 12.4575 16.6666 10.5992 16.6666 8.30499C16.6666 6.01074 14.802 4.1525 12.5 4.1525ZM12.5 14.5337C9.71871 14.5337 4.16663 15.9248 4.16663 18.6862V20.7625H20.8333V18.6862C20.8333 15.9248 15.2812 14.5337 12.5 14.5337Z" fill="white"/>
</svg>
